<svg height="438pt" viewBox="0 0 438 438.69583" width="438pt" xmlns="http://www.w3.org/2000/svg"><path d="m237.5 288.527344c25.460938.425781 50.792969 3.734375 75.511719 9.855468 7.707031-26.785156 11.851562-54.46875 12.328125-82.335937h-87.839844zm0 0"/><path d="m133.660156 200.046875h87.839844v-72.261719c-25.46875-.484375-50.804688-3.855468-75.511719-10.058594-7.710937 26.78125-11.855469 54.457032-12.328125 82.320313zm0 0"/><path d="m145.988281 298.382812c24.71875-6.125 50.050781-9.429687 75.511719-9.855468v-72.480469h-87.839844c.476563 27.867187 4.621094 55.550781 12.328125 82.335937zm0 0"/><path d="m437.5 208.046875c.019531-88.789063-56.324219-167.804687-140.277344-196.714844-83.953125-28.90625-177-1.339843-231.652344 68.640625-54.652343 69.976563-58.859374 166.929688-10.46875 241.378906 1.570313 2.394532 1.738282 5.445313.445313 8l-55.199219 109.34375 112.558594-53.917968c2.453125-1.1875 5.34375-1.03125 7.65625.40625 64.171875 39.453125 144.660156 41.125 210.414062 4.375 65.757813-36.75 106.503907-106.183594 106.523438-181.511719zm-55.199219 128.863281c-1.472656 2.304688-4.019531 3.699219-6.753906 3.699219-1.523437.003906-3.015625-.433594-4.296875-1.257813-14.984375-9.25-31.121094-16.484374-48-21.519531-8.980469 27.90625-25.238281 52.914063-47.101562 72.449219-3.445313 2.675781-8.398438 2.101562-11.136719-1.292969s-2.253907-8.355469 1.089843-11.15625c19.335938-17.363281 33.75-39.523437 41.78125-64.238281-23.054687-5.609375-46.660156-8.652344-70.382812-9.074219v87.527344c0 4.417969-3.582031 8-8 8s-8-3.582031-8-8v-87.527344c-23.730469.421875-47.339844 3.460938-70.398438 9.074219 8.035157 24.714844 22.453126 46.875 41.789063 64.238281 2.285156 1.777344 3.433594 4.644531 3 7.507813-.429687 2.859375-2.371094 5.265625-5.074219 6.289062-2.707031 1.023438-5.753906.507813-7.972656-1.347656-21.863281-19.535156-38.121094-44.542969-47.105469-72.449219-16.875 5.035157-33.011719 12.269531-48 21.519531-3.722656 2.386719-8.671875 1.300782-11.058593-2.417968-2.386719-3.722656-1.300782-8.675782 2.421874-11.0625 16.113282-9.964844 33.472657-17.761719 51.621094-23.199219-8.164062-28.171875-12.554687-57.300781-13.0625-86.625h-72.160156c-4.417969 0-8-3.582031-8-8s3.582031-8 8-8h72.160156c.511719-29.316406 4.910156-58.4375 13.078125-86.597656-18.148437-5.4375-35.503906-13.238281-51.621093-23.203125-2.496094-1.496094-3.980469-4.230469-3.875-7.140625.101562-2.910157 1.777343-5.53125 4.371093-6.847657 2.59375-1.320312 5.703125-1.121093 8.109375.511719 14.988282 9.25 31.125 16.484375 48 21.519531 8.984375-27.910156 25.242188-52.917968 47.105469-72.449218 2.21875-1.859375 5.265625-2.375 7.96875-1.347656 2.707031 1.023437 4.648437 3.429687 5.078125 6.289062.433594 2.859375-.714844 5.730469-3 7.507812-19.339844 17.363282-33.75 39.519532-41.78125 64.238282 23.0625 5.601562 46.675781 8.636718 70.40625 9.046875v-87.527344c0-4.417969 3.582031-8 8-8s8 3.582031 8 8v87.527344c23.730469-.417969 47.339844-3.460938 70.398438-9.070313-8.035157-24.714844-22.453126-46.875-41.789063-64.238281-3.34375-2.800781-3.828125-7.765625-1.089844-11.160156s7.691407-3.964844 11.136719-1.289063c21.863281 19.53125 38.121094 44.539063 47.105469 72.449219 16.875-5.039063 33.011719-12.273437 48-21.523437 3.71875-2.382813 8.671875-1.300782 11.058593 2.421874 2.386719 3.722657 1.300782 8.675782-2.421874 11.058594-16.113282 9.964844-33.472657 17.765625-51.621094 23.203125 8.164062 28.167969 12.554687 57.296875 13.0625 86.621094h72.160156c4.417969 0 8 3.582031 8 8s-3.582031 8-8 8h-72.160156c-.511719 29.320313-4.910156 58.4375-13.078125 86.601563 18.148437 5.4375 35.503906 13.238281 51.621093 23.199218 1.789063 1.144532 3.050782 2.957032 3.503907 5.03125.453125 2.074219.0625 4.246094-1.085938 6.03125zm0 0"/><path d="m237.5 127.785156v72.261719h87.839844c-.472656-27.863281-4.617188-55.539063-12.328125-82.320313-24.707031 6.203126-50.042969 9.578126-75.511719 10.058594zm0 0"/></svg>